<?xml version="1.0" encoding="utf-8"?>
<!-- Generator: Adobe Illustrator 27.0.0, SVG Export Plug-In . SVG Version: 6.00 Build 0)  -->
<svg version="1.1" id="Layer_1" xmlns="http://www.w3.org/2000/svg" xmlns:xlink="http://www.w3.org/1999/xlink" x="0px" y="0px"
	 viewBox="0 0 1366 238" style="enable-background:new 0 0 1366 238;" xml:space="preserve">
<style type="text/css">
	.st0{enable-background:new    ;}
	.st1{fill:#FFFFFF;}
</style>
<g class="st0">
	<path class="st1" d="M35.5,196.9l-0.2-0.4c8.3-3.1,14.2-8.5,14.2-56.1V83.2c0-47.5-5.9-53-14.1-56.1l0.1-0.4
		c11.2,2.2,19.1,3.1,28.9,3.1s20.9-2.7,34.5-2.7c24.2,0,40.7,5.4,40.7,18.8c0,8.1-4.2,15.3-4.2,23.3c0,13,8.9,20,8.9,27.9
		c0,8-7.3,16-7.3,28.7c0,7.8,5.8,13.1,5.8,20.7c0,16.9-18.5,22.1-42.7,22.1c-15.4,0-22.5-6.4-26.2-6.4c-0.6,0-1.1,0.4-1.1,1
		c0,0.4,0.3,0.9,1,1.2c6.3,2.6,7.2,9.4,9.9,17.4c2.9,9.6,5.8,12.7,10.9,14.7l-0.2,0.4c-11.1-2.2-18.9-3.1-28.6-3.1h-1.5
		C54.6,193.8,46.7,194.7,35.5,196.9z M112.7,157c0-7.9-14.2-14-14.2-28.4c0-26,42.2-19.9,42.2-31.3c0-11.9-42.6-9.9-42.6-31.3
		c0-14,13.2-20.5,13.2-27.9c0-5.7-4.7-7.7-14.7-7.7C86.2,30.4,81,32.9,81,77.9v38.2c0,41.6,6.1,48.6,17,48.6
		C107.7,164.8,112.7,162.6,112.7,157z"/>
	<path class="st1" d="M150.3,196.9l-0.2-0.4c8.3-3.1,14.2-8.5,14.2-56.1V83.2c0-47.5-5.9-53-14.1-56.1l0.1-0.4
		c11.2,2.2,19.1,3.1,28.9,3.1v0.1l0.2-0.1h1.4c12.4,0,15.4,0.4,15.4,6.2c0,10.9-6.9,41.7-6.9,51.5c0,1.4,0.5,2,1.4,2
		c0.5,0,1.5-0.3,1.8-1.5c5.8-24.1,17-39,35.4-39c16.4,0,29.5,3.7,29.5,18.8c0,13.6-7.7,35.2-7.7,72.8c0,47.3,5.9,52.8,14.1,55.9
		l-0.1,0.4c-11.2-2.2-19.1-3.1-28.6-3.1c-9.2,0-17.5,2.7-26.7,2.7c-9,0-17.7-2.7-28.4-2.7h-0.7C169.4,193.8,161.5,194.7,150.3,196.9
		z M218.5,146c0-51.6,12.3-71.3,12.3-85.4c0-4.4-2.1-7.4-8-7.4c-9.5,0-26.9,15.1-26.9,46.8v42.5c0,43.7,1.8,51.8,12,51.8
		c5.4,0,10.7-6.1,10.7-27.1V146z"/>
	<path class="st1" d="M272.6,175.7c0-8,7.3-13,7.3-20.4c0-14.4-7.8-23.4-7.8-32.6c0-9,9.6-16.9,9.6-31.7c0-7.6-4.7-14.4-4.7-22.3
		c0-13.9,16.9-19.7,46.6-19.7c29.5,0,46.7,5.8,46.7,19.7c0,7.9-4.6,14.7-4.6,22.3c0,14.8,9.7,22.8,9.7,31.7c0,9.2-7.9,18.2-7.9,32.6
		c0,7.4,7.3,12.4,7.3,20.4c0,15.7-19.7,20.8-51.2,20.8C292.4,196.5,272.6,191.4,272.6,175.7z M344.3,185.3
		c0-7.4-14.2-13.5-14.2-28.2c0-28,41.7-22.4,41.7-34.2c0-12.5-42.1-11.3-42.1-35.5c0-14,13.2-20.2,13.2-27.5c0-5.8-5.8-7.7-19.3-7.7
		c-13.5,0-19.1,1.9-19.1,7.7c0,7.3,13.2,13.5,13.2,27.5c0,24.1-42,23-42,35.5c0,11.7,41.5,6.2,41.5,34.2c0,14.7-14.2,20.8-14.2,28.2
		c0,6,6.1,7.9,20.5,7.9C338.1,193.2,344.3,191.3,344.3,185.3z"/>
	<path class="st1" d="M380.8,49.6l0.4-0.2c1.4,1.2,4.1,2.2,10.1,2.2h3.4c-0.3-3.2-0.5-6.5-0.5-10.3c0-7.3,3.5-14.3,23.8-14.3
		c13.6,0,17.4,2.2,17.4,6.7c0,5.9-17.3,8.9-17.3,13.9c0,2.9,3,4,9.8,4h14.5c5.9,0,8.5-1.1,9.8-2.2l0.4,0.2c-1.1,2.5-2.5,3.1-4,4
		c1.5,0.9,2.9,1.6,4,4l-0.4,0.2c-1.3-1.1-4-2.1-9.8-2.1h-12c-11.4,0-16.9-2.5-16.9-7.9c0-5.6,6-9.5,6-12.6c0-2.5-1.6-3.1-5.3-3.1
		c-12,0-15.2,4.2-15.2,8.4c0,13.1,31,18.9,31,45.6c0,31.6-6.1,82.1-6.1,93.8c0,8.2,3.7,12.1,10.8,12.1c7.6,0,12.4-3.3,12.4-12.6
		c0-9.6-9.4-47-9.2-74c0-5.4,1.3-10.5,2.6-13.8h3.3c-1.5,4.3-2.1,8.8-2.1,13.8c-0.4,26.8,9,62.9,9,72.8c0,14-5.3,18.5-23.1,18.5
		c-25.5,0-35.6-7.9-35.6-20.9c0-12.4,7.3-44.1,7.3-74.2c0-24.6-2.6-35.2-4.1-45.8h-4c-6.1,0-8.8,1.1-10.1,2.1l-0.4-0.2
		c1.2-2.4,2.5-3.1,4.2-4C383.3,52.7,382,52.1,380.8,49.6z"/>
	<path class="st1" d="M462.3,175.7c0-8,7.3-13,7.3-20.4c0-14.4-7.8-23.4-7.8-32.6c0-9,9.6-16.9,9.6-31.7c0-7.6-4.7-14.4-4.7-22.3
		c0-13.9,16.9-19.7,46.6-19.7c29.5,0,46.7,5.8,46.7,19.7c0,7.9-4.6,14.7-4.6,22.3c0,14.8,9.7,22.8,9.7,31.7c0,9.2-7.9,18.2-7.9,32.6
		c0,7.4,7.3,12.4,7.3,20.4c0,15.7-19.7,20.8-51.2,20.8C482.1,196.5,462.3,191.4,462.3,175.7z M534,185.3c0-7.4-14.2-13.5-14.2-28.2
		c0-28,41.7-22.4,41.7-34.2c0-12.5-42.1-11.3-42.1-35.5c0-14,13.2-20.2,13.2-27.5c0-5.8-5.8-7.7-19.3-7.7c-13.5,0-19.1,1.9-19.1,7.7
		c0,7.3,13.2,13.5,13.2,27.5c0,24.1-42,23-42,35.5c0,11.7,41.5,6.2,41.5,34.2c0,14.7-14.2,20.8-14.2,28.2c0,6,6.1,7.9,20.5,7.9
		C527.8,193.2,534,191.3,534,185.3z"/>
	<path class="st1" d="M625.2,186.5c0-9.2-7.4-25.1-22.2-57c-15-32-22.6-49.2-22.6-62.6c0-12.6,10.9-17.8,23.9-17.8
		c14.4,0,27.5,2.5,37.2,2.5c4.3,0,8.2-0.9,12.4-2.8l0.3,0.3c-6.1,6.1-9.2,17.1-9.2,35.7c0,13.2,0.1,23,1.4,33.2l-1.2,0.1
		c-3.5-18.7-10.7-34.6-17.1-45.6c-6.6-11-17.8-18.1-28.9-18.1c-6.3,0-14.2,2.7-14.2,12.1c0,7.7,4.6,10.8,15,13.8
		c10.1,3.1,20.8,8.3,29.2,24.6c14.2,29.2,26.9,52.3,26.9,71.1c0,12.4-8.7,20.6-36,20.6c-14.5,0-24.2-2.5-33-2.5
		c-4.2,0-7.4,0.9-11.5,2.8l-0.3-0.3c5.9-6.4,8.4-17,8.4-35.5c0-16.6,0.1-28.7-1.4-41.7l1.1-0.1c4.2,23,10.1,42.9,15.9,55.2
		c5.8,12.3,12.1,18.7,19.2,18.7C623.2,193.2,625.2,191.1,625.2,186.5z"/>
	<path class="st1" d="M665.1,197.3c0-14.6,13.1-19.7,41.7-24.7c21.5-3.6,26.1-6.9,28.1-11.2c0.9-1.7,0.4-2.5-0.6-2.6
		c-0.7-0.1-1.6,0-3,1.4c-4.3,4.4-14.3,8.9-29.4,8.9c-14.7,0-28.8-2.8-28.8-17.6c0-10.8,6.7-28.6,6.7-59c0-31.7-7.4-40.4-15.6-43.5
		l0.1-0.4c11.7,2.3,20,2.9,30.1,3.3c12.1,0.6,15.9,2.6,15.9,10.5l-0.2,22.3c-0.1,35.9-10.7,59.2-10.7,73.7c0,4.3,2.5,6.8,7.6,6.8
		c7,0,16-2.2,21.7-7.5c2.2-1.8,4.2-2.5,6.4-2.1c3.3,0.4,4.4,2.9,3.3,6.1c-1.7,5.8-8.3,9.9-24,13.6c-16.7,3.8-22,8.3-22,13.9
		c0,5.7,4.3,9.8,17.6,9.8c38.3,0,45.4-4.4,45.4-14.7c0-8.5-4.2-16.1-11.1-25.7c-7.9-9.8-14.2-19.4-14.2-38V63.3
		c0-7.5,3.1-9.9,13.6-10.9c10.9-1,19.5-1.5,31.9-3.8l0.2,0.4c-8.2,3.1-14.2,8.2-14.2,53.9v19.9c0,18.3,5.4,32.2,5.4,46.6
		c0,23.2-31.3,49.3-65.8,49.3C677.5,218.7,665.1,210.2,665.1,197.3z"/>
	<path class="st1" d="M779.2,196.9l-0.2-0.4c8.3-3.1,14.2-8.5,14.2-56.1v-35.4c0-47.5-5.9-53-14.1-56.1l0.1-0.4
		c11.2,2.2,19.1,3.1,28.9,3.1v0.1l0.2-0.1h1.4c12.4,0,15.4,0.4,15.4,6.3c0,6.4-6.9,22.5-6.9,29.5c0,1.4,0.5,2,1.4,2
		c0.5,0,1.5-0.3,1.8-1.5c5.8-24.1,17-39,35.4-39c18.1,0,30.2,4.4,30.2,18.8c0,13.6-7.9,39.2-7.9,72.8c0,47.3,5.9,52.8,14.1,55.9
		l-0.1,0.4c-11.2-2.2-19.1-3.1-28.9-3.1h-0.2c-9.2,0-17.5,2.7-26.7,2.7c-9,0-17.7-2.7-28.4-2.7h-0.7
		C798.3,193.8,790.4,194.7,779.2,196.9z M847.4,146c0-51.6,12.3-71.3,12.3-85.8c0-4.5-2.1-7-7.9-7c-9.6,0-27.1,15.1-27.1,46.8v42.5
		c0,43.7,1.9,51.8,12.1,51.8c5.4,0,10.7-6.1,10.7-27.1V146z"/>
	<path class="st1" d="M895.4,49.6l0.4-0.2c1.4,1.2,4.1,2.2,10.1,2.2h3.4c-0.3-3.2-0.5-6.5-0.5-10.3c0-7.3,3.5-14.3,23.8-14.3
		c13.6,0,17.4,2.2,17.4,6.7c0,5.9-17.3,8.9-17.3,13.9c0,2.9,3,4,9.8,4h14.5c5.9,0,8.5-1.1,9.8-2.2l0.4,0.2c-1.1,2.5-2.5,3.1-4,4
		c1.5,0.9,2.9,1.6,4,4l-0.4,0.2c-1.3-1.1-4-2.1-9.8-2.1h-12c-11.4,0-16.9-2.5-16.9-7.9c0-5.6,6-9.5,6-12.6c0-2.5-1.6-3.1-5.3-3.1
		c-12,0-15.2,4.2-15.2,8.4c0,13.1,31,18.9,31,45.6c0,31.6-6.1,82.1-6.1,93.8c0,8.2,3.7,12.1,10.8,12.1c7.6,0,12.4-3.3,12.4-12.6
		c0-9.6-9.4-47-9.2-74c0-5.4,1.3-10.5,2.6-13.8h3.3c-1.5,4.3-2.1,8.8-2.1,13.8c-0.4,26.8,9,62.9,9,72.8c0,14-5.3,18.5-23.1,18.5
		c-25.5,0-35.6-7.9-35.6-20.9c0-12.4,7.3-44.1,7.3-74.2c0-24.6-2.6-35.2-4.1-45.8h-4c-6.1,0-8.8,1.1-10.1,2.1l-0.4-0.2
		c1.2-2.4,2.5-3.1,4.2-4C897.9,52.7,896.6,52.1,895.4,49.6z"/>
	<path class="st1" d="M1069.8,152.7c0,9.1,7.9,14.5,7.9,23.6c0,15.1-19.4,20.2-50.6,20.2c-30.8,0-50.2-5.1-50.2-20.8
		c0-8,7.3-13,7.3-20.4c0-14.4-7.8-23.3-7.8-32.6c0-9,9.6-17,9.6-31.7c0-7.6-4.7-14.4-4.7-22.3c0-13.9,16.7-19.7,45.8-19.7
		s46.1,5.8,46.1,19.7c0,7.6-4.6,14.1-4.6,21.5c0,11.7,4.9,17.9,4.9,25.7c0,6.7-3.3,11-18.4,11c-31.1,0-43.6-18.1-57.9-18.1
		c-8.1,0-16.9,4.6-16.9,12.7c0,13.9,41.1,6.6,41.1,35.6c0,14.7-14.2,20.8-14.2,28.2c0,6,6,7.9,19.8,7.9c14.2,0,20.1-1.9,20.1-7.9
		c0-7.2-14.1-13.2-14.1-27.3c0-19,33.3-18.2,43.5-30.4l1.1,0.5C1072.2,138.5,1069.8,146.2,1069.8,152.7z M1016.1,103.4
		c0,10.8,16.4,19.7,39.3,19.7c9.3,0,13.1-1.6,13.1-6.4c0-10.5-35.9-9.8-35.9-29.2c0-14,13.2-20.2,13.2-27.5c0-5.8-5.6-7.7-18.8-7.7
		c-12.9,0-18.4,1.9-18.4,7.7c0,7.3,11.9,13.9,11.9,26.2C1020.6,92.5,1016.1,96.9,1016.1,103.4z"/>
	<path class="st1" d="M1138,186.5c0-9.2-7.4-25.1-22.2-57c-15-32-22.6-49.2-22.6-62.6c0-12.6,10.9-17.8,23.9-17.8
		c14.4,0,27.5,2.5,37.2,2.5c4.3,0,8.2-0.9,12.4-2.8l0.3,0.3c-6.1,6.1-9.2,17.1-9.2,35.7c0,13.2,0.1,23,1.4,33.2l-1.2,0.1
		c-3.5-18.7-10.7-34.6-17.1-45.6c-6.6-11-17.8-18.1-28.9-18.1c-6.3,0-14.2,2.7-14.2,12.1c0,7.7,4.6,10.8,15,13.8
		c10.1,3.1,20.8,8.3,29.2,24.6c14.2,29.2,26.9,52.3,26.9,71.1c0,12.4-8.7,20.6-36,20.6c-14.5,0-24.2-2.5-33-2.5
		c-4.2,0-7.4,0.9-11.5,2.8l-0.3-0.3c5.9-6.4,8.4-17,8.4-35.5c0-16.6,0.1-28.7-1.4-41.7l1.1-0.1c4.2,23,10.1,42.9,15.9,55.2
		s12.1,18.7,19.2,18.7C1136,193.2,1138,191.1,1138,186.5z"/>
	<path class="st1" d="M1177.5,196.9l-0.2-0.4c8.3-3.1,14.2-8.5,14.2-56.1v-29.3l-0.1,0.4c0-47.5-5.9-53-14.1-56.1l0.1-0.4
		c11.2,2.2,19.1,3.1,28.9,3.1h1.7c9.7,0,17.6-0.9,28.8-3.1l0.2,0.4c-8.3,3.1-14.2,8.5-14.2,56.1v29.3l0.1-0.4
		c0,47.5,5.9,53,14.1,56.1l-0.1,0.4c-11.2-2.2-19.1-3.1-28.9-3.1h-1.7C1196.6,193.8,1188.7,194.7,1177.5,196.9z M1185.2,38
		c0-8.5,7.4-13.2,21.8-13.2c15.1,0,22.2,4.7,22.2,13.2c0,8.9-7.2,13.4-22.2,13.4C1192.6,51.3,1185.2,46.9,1185.2,38z"/>
	<path class="st1" d="M1294.7,186.5c0-9.2-7.4-25.1-22.2-57c-15-32-22.6-49.2-22.6-62.6c0-12.6,10.9-17.8,23.9-17.8
		c14.4,0,27.5,2.5,37.2,2.5c4.3,0,8.2-0.9,12.4-2.8l0.3,0.3c-6.1,6.1-9.2,17.1-9.2,35.7c0,13.2,0.1,23,1.4,33.2l-1.2,0.1
		c-3.5-18.7-10.7-34.6-17.1-45.6c-6.6-11-17.8-18.1-28.9-18.1c-6.3,0-14.2,2.7-14.2,12.1c0,7.7,4.6,10.8,15,13.8
		c10.1,3.1,20.8,8.3,29.2,24.6c14.2,29.2,26.9,52.3,26.9,71.1c0,12.4-8.7,20.6-36,20.6c-14.5,0-24.2-2.5-33-2.5
		c-4.2,0-7.4,0.9-11.5,2.8l-0.3-0.3c5.9-6.4,8.4-17,8.4-35.5c0-16.6,0.1-28.7-1.4-41.7l1.1-0.1c4.2,23,10.1,42.9,15.9,55.2
		s12.1,18.7,19.2,18.7C1292.7,193.2,1294.7,191.1,1294.7,186.5z"/>
</g>
</svg>
